<svg width="156" height="156" viewBox="0 0 156 156" fill="none" xmlns="http://www.w3.org/2000/svg">
<g id="ico-24-logo">
<path id="Ico" fill-rule="evenodd" clip-rule="evenodd" d="M123.531 31.8913C111.367 19.7151 95.194 13.0062 77.9614 13C42.4552 13 13.556 41.8961 13.5405 77.4147C13.5344 88.7693 16.5027 99.852 22.1399 109.619L13 143L47.1502 134.042C56.5588 139.176 67.1535 141.879 77.9336 141.882H77.9614C77.9583 141.882 77.9645 141.882 77.9614 141.882C113.465 141.882 142.367 112.983 142.379 77.4641C142.385 60.2531 135.692 44.0675 123.531 31.8913ZM77.9614 131.003H77.9398C68.3335 131 58.9094 128.418 50.6869 123.54L48.7317 122.379L28.4658 127.695L33.8744 107.936L32.6018 105.909C27.2426 97.384 24.4102 87.5306 24.4164 77.4147C24.4287 47.8946 48.4475 23.8758 77.983 23.8758C92.2843 23.882 105.727 29.4573 115.837 39.5795C125.947 49.6985 131.51 63.1535 131.503 77.4579C131.491 106.984 107.472 131.003 77.9614 131.003ZM107.33 90.9036C105.721 90.0975 97.8072 86.2055 96.3307 85.6681C94.8543 85.1306 93.7824 84.8619 92.7106 86.4742C91.6388 88.0866 88.553 91.7129 87.614 92.7847C86.675 93.8597 85.736 93.9925 84.1267 93.1863C82.5174 92.3801 77.3313 90.6812 71.1814 85.1985C66.3968 80.9298 63.1658 75.6602 62.2268 74.0478C61.2878 72.4355 62.128 71.5644 62.9311 70.7644C63.6539 70.0416 64.5404 68.8833 65.3466 67.9443C66.1528 67.0053 66.4184 66.3319 66.9558 65.2601C67.4933 64.1852 67.2246 63.2462 66.823 62.44C66.4215 61.6338 63.2029 53.7109 61.8593 50.4893C60.5527 47.351 59.2245 47.7773 58.2392 47.7247C57.3001 47.6784 56.2283 47.6691 55.1534 47.6691C54.0816 47.6691 52.3364 48.0707 50.8599 49.6831C49.3834 51.2954 45.2259 55.1905 45.2259 63.1103C45.2259 71.0331 50.9927 78.6873 51.7989 79.7622C52.6051 80.8371 63.1504 97.0937 79.2958 104.068C83.1352 105.727 86.1345 106.718 88.4727 107.46C92.3276 108.686 95.8365 108.513 98.6103 108.099C101.702 107.636 108.133 104.204 109.474 100.445C110.814 96.686 110.814 93.4612 110.413 92.7909C110.014 92.1114 108.939 91.7098 107.33 90.9036Z" fill="white"/>
</g>
</svg>
