<svg width="30" height="30" viewBox="0 0 30 30" fill="none" xmlns="http://www.w3.org/2000/svg">
<g id="Var">
<rect width="30" height="30" fill="white"/>
<path id="Union" fill-rule="evenodd" clip-rule="evenodd" d="M16 0.717177L15 0.139827L14 0.717177L3.13072 6.99256L2.13072 7.56991V8.72461V21.2754V22.4301L3.13072 23.0074L14 29.2828L15 29.8602L16 29.2828L26.8693 23.0074L27.8693 22.4301V21.2754V8.72461V7.56991L26.8693 6.99256L16 0.717177ZM6.13072 20.1207V9.87931L15 4.75863L23.8693 9.87931V20.1207L15 25.2414L6.13072 20.1207ZM15 18.1377C16.7329 18.1377 18.1377 16.7329 18.1377 15C18.1377 13.2671 16.7329 11.8623 15 11.8623C13.2671 11.8623 11.8623 13.2671 11.8623 15C11.8623 16.7329 13.2671 18.1377 15 18.1377Z" fill="#222222" fill-opacity="0.8"/>
</g>
</svg>
