<svg width="51" height="51" viewBox="0 0 51 51" fill="none" xmlns="http://www.w3.org/2000/svg">
<g id="SVG">
<g id="Group">
<path id="Vector" d="M42.3419 38.0321C38.8936 35.4459 33.4749 33.7218 29.4109 33.9681C28.3025 34.9533 26.3321 37.5395 25.7163 38.8942C23.3764 38.1553 20.5439 35.8154 17.9577 33.2292C15.3715 30.643 13.0316 27.8104 12.2927 25.4705C13.5242 24.8548 16.2335 22.7612 17.2188 21.776C17.4651 17.8351 15.7409 12.2932 13.1547 8.84493C10.6917 8.59862 5.02665 8.96808 1.08577 11.0617C0.100544 16.2341 1.45522 26.8252 12.7853 38.5247C24.4848 49.8548 34.9528 51.2095 40.2483 50.2242C42.3419 46.1602 42.7114 40.4952 42.3419 38.0321Z" fill="#EE3F4C"/>
<path id="Vector_2" d="M28.1794 19.5592C28.1794 16.973 26.0858 15.8646 24.1153 15.8646C21.8986 15.8646 20.5439 17.0962 19.9281 18.4508L22.1449 19.9287C22.5143 19.3129 23.1301 18.6971 23.869 18.6971C24.4848 18.6971 25.2237 19.0666 25.2237 19.9287C25.2237 21.6528 20.0513 22.5149 20.0513 26.9484C20.0513 27.3178 20.0513 27.8104 20.1744 28.303H28.5488V25.7168H23.3764C23.3764 24.1159 28.1794 23.3769 28.1794 19.5592ZM37.7853 22.7612V16.1109H34.2138L29.534 23.5001V25.2242H34.9528V28.1799H37.9084V25.2242H39.3863V22.7612H37.7853ZM34.9528 20.0518V22.7612H32.6129L34.4602 20.0518C34.8296 19.5592 35.0759 18.8203 35.0759 18.8203C35.0759 18.8203 34.9528 19.4361 34.9528 20.0518Z" fill="#EE3F4C"/>
<path id="Vector_3" d="M21.7754 9.21438L18.5734 3.67251C17.7114 4.04197 16.7262 4.53458 15.8641 5.15034L19.1892 10.6922C19.9281 10.0765 20.9134 9.58384 21.7754 9.21438ZM47.7606 13.6479C47.268 12.6627 46.7754 11.8006 46.2828 10.9385L40.6178 14.1405C41.2335 15.0026 41.7262 15.8646 42.2188 16.8499L47.7606 13.6479ZM40.7409 32.2439L46.406 35.4459C47.0217 34.5838 47.5143 33.7218 47.8838 32.7366L42.3419 29.5346C41.8493 30.5198 41.2336 31.3819 40.7409 32.2439ZM49.9774 21.776H43.5735C43.5735 22.2686 43.6966 22.7612 43.6966 23.3769C43.6966 23.8696 43.6966 24.3622 43.5735 24.9779H49.9774C49.9774 24.4853 50.1005 23.9927 50.1005 23.3769C50.1005 22.7612 49.9774 22.2686 49.9774 21.776ZM34.4602 9.21438C35.4454 9.58384 36.3074 10.1996 37.1695 10.8154L40.3715 5.15034C39.5094 4.53458 38.6473 4.04197 37.7853 3.54936L34.4602 9.21438ZM26.5784 1.45576V7.8597C27.071 7.8597 27.5636 7.73655 28.1794 7.73655C28.672 7.73655 29.1646 7.73655 29.7803 7.8597V1.45576C29.2877 1.45576 28.7951 1.33261 28.1794 1.33261C27.6868 1.33261 27.071 1.45576 26.5784 1.45576Z" fill="#EE3F4C"/>
</g>
</g>
</svg>
